<svg width="116" height="32" viewBox="0 0 116 32" fill="none" xmlns="http://www.w3.org/2000/svg">
<path d="M6.436 9.238H9.154L10.486 13.324L11.818 9.238H14.554L12.376 15.178L13.672 18.58L16.876 9.22H20.098L15.112 22H12.556L10.486 16.996L8.434 22H5.86L0.892 9.22H4.096L7.318 18.58L8.578 15.178L6.436 9.238ZM30.7304 19.408V22H21.7484V9.22H30.5684V11.812H24.7004V14.296H29.7404V16.69H24.7004V19.408H30.7304ZM43.6298 18.724C43.6298 19.456 43.4318 20.068 43.0358 20.56C42.6518 21.04 42.1298 21.4 41.4698 21.64C40.8098 21.88 40.0838 22 39.2918 22H33.0638V9.22H40.1738C40.7738 9.22 41.2898 9.382 41.7218 9.706C42.1658 10.018 42.5018 10.426 42.7298 10.93C42.9698 11.434 43.0898 11.956 43.0898 12.496C43.0898 13.096 42.9338 13.672 42.6218 14.224C42.3098 14.764 41.8538 15.172 41.2538 15.448C41.9858 15.664 42.5618 16.048 42.9818 16.6C43.4138 17.152 43.6298 17.86 43.6298 18.724ZM40.6238 18.13C40.6238 17.854 40.5698 17.614 40.4618 17.41C40.3538 17.194 40.2098 17.026 40.0298 16.906C39.8618 16.774 39.6578 16.708 39.4178 16.708H36.0158V19.498H39.2918C39.5438 19.498 39.7658 19.438 39.9578 19.318C40.1618 19.198 40.3238 19.036 40.4438 18.832C40.5638 18.628 40.6238 18.394 40.6238 18.13ZM36.0158 11.74V14.386H38.9138C39.1298 14.386 39.3278 14.338 39.5078 14.242C39.6998 14.146 39.8558 14.002 39.9758 13.81C40.0958 13.606 40.1558 13.354 40.1558 13.054C40.1558 12.766 40.1018 12.526 39.9938 12.334C39.8978 12.142 39.7658 11.998 39.5978 11.902C39.4298 11.794 39.2378 11.74 39.0218 11.74H36.0158Z" fill="#4D5AE5"/>
<path d="M53.892 12.964C53.856 12.904 53.73 12.814 53.514 12.694C53.298 12.562 53.028 12.424 52.704 12.28C52.38 12.136 52.026 12.01 51.642 11.902C51.258 11.794 50.874 11.74 50.49 11.74C49.986 11.74 49.596 11.83 49.32 12.01C49.044 12.178 48.906 12.442 48.906 12.802C48.906 13.09 49.008 13.318 49.212 13.486C49.428 13.654 49.734 13.804 50.13 13.936C50.526 14.056 51.012 14.2 51.588 14.368C52.404 14.584 53.112 14.848 53.712 15.16C54.312 15.46 54.768 15.85 55.08 16.33C55.404 16.81 55.566 17.446 55.566 18.238C55.566 18.958 55.434 19.57 55.17 20.074C54.906 20.566 54.546 20.968 54.09 21.28C53.646 21.58 53.136 21.802 52.56 21.946C51.984 22.078 51.39 22.144 50.778 22.144C50.154 22.144 49.512 22.084 48.852 21.964C48.204 21.832 47.58 21.652 46.98 21.424C46.38 21.184 45.828 20.896 45.324 20.56L46.62 17.986C46.668 18.046 46.824 18.16 47.088 18.328C47.352 18.484 47.676 18.652 48.06 18.832C48.456 19 48.894 19.15 49.374 19.282C49.854 19.414 50.34 19.48 50.832 19.48C51.36 19.48 51.75 19.396 52.002 19.228C52.266 19.06 52.398 18.826 52.398 18.526C52.398 18.202 52.26 17.95 51.984 17.77C51.72 17.59 51.354 17.428 50.886 17.284C50.43 17.14 49.902 16.978 49.302 16.798C48.522 16.558 47.874 16.288 47.358 15.988C46.854 15.688 46.476 15.322 46.224 14.89C45.984 14.458 45.864 13.918 45.864 13.27C45.864 12.37 46.074 11.614 46.494 11.002C46.926 10.378 47.502 9.91 48.222 9.598C48.942 9.274 49.728 9.112 50.58 9.112C51.18 9.112 51.756 9.184 52.308 9.328C52.872 9.472 53.394 9.652 53.874 9.868C54.366 10.084 54.804 10.3 55.188 10.516L53.892 12.964ZM67.5762 11.812H63.6882V22H60.7362V11.812H56.8302V9.22H67.5762V11.812ZM75.0479 22.108C74.0279 22.108 73.1579 21.94 72.4379 21.604C71.7179 21.256 71.1299 20.788 70.6739 20.2C70.2299 19.6 69.8999 18.922 69.6839 18.166C69.4799 17.398 69.3779 16.594 69.3779 15.754V9.22H72.3299V15.754C72.3299 16.234 72.3779 16.702 72.4739 17.158C72.5699 17.602 72.7259 17.998 72.9419 18.346C73.1579 18.694 73.4339 18.97 73.7699 19.174C74.1179 19.378 74.5439 19.48 75.0479 19.48C75.5639 19.48 75.9959 19.378 76.3439 19.174C76.6919 18.958 76.9679 18.676 77.1719 18.328C77.3759 17.968 77.5259 17.566 77.6219 17.122C77.7179 16.678 77.7659 16.222 77.7659 15.754V9.22H80.7179V15.754C80.7179 16.642 80.6039 17.47 80.3759 18.238C80.1599 19.006 79.8239 19.684 79.3679 20.272C78.9119 20.848 78.3239 21.298 77.6039 21.622C76.8959 21.946 76.0439 22.108 75.0479 22.108ZM83.5452 22V9.22H88.3152C89.7192 9.22 90.8892 9.508 91.8252 10.084C92.7732 10.648 93.4872 11.416 93.9672 12.388C94.4472 13.348 94.6872 14.416 94.6872 15.592C94.6872 16.888 94.4232 18.016 93.8952 18.976C93.3672 19.936 92.6232 20.68 91.6632 21.208C90.7152 21.736 89.5992 22 88.3152 22H83.5452ZM91.6812 15.592C91.6812 14.848 91.5492 14.194 91.2852 13.63C91.0212 13.054 90.6372 12.61 90.1332 12.298C89.6292 11.974 89.0232 11.812 88.3152 11.812H86.4972V19.408H88.3152C89.0352 19.408 89.6412 19.246 90.1332 18.922C90.6372 18.586 91.0212 18.13 91.2852 17.554C91.5492 16.966 91.6812 16.312 91.6812 15.592ZM96.9699 22V9.22H99.9219V22H96.9699ZM108.504 22.108C107.544 22.108 106.674 21.928 105.894 21.568C105.126 21.196 104.46 20.704 103.896 20.092C103.344 19.468 102.918 18.772 102.618 18.004C102.318 17.224 102.168 16.42 102.168 15.592C102.168 14.74 102.324 13.93 102.636 13.162C102.96 12.394 103.404 11.71 103.968 11.11C104.544 10.498 105.222 10.018 106.002 9.67C106.782 9.322 107.634 9.148 108.558 9.148C109.506 9.148 110.364 9.334 111.132 9.706C111.912 10.066 112.578 10.558 113.13 11.182C113.694 11.806 114.126 12.508 114.426 13.288C114.726 14.056 114.876 14.842 114.876 15.646C114.876 16.498 114.72 17.308 114.408 18.076C114.096 18.844 113.652 19.534 113.076 20.146C112.5 20.746 111.822 21.226 111.042 21.586C110.274 21.934 109.428 22.108 108.504 22.108ZM105.174 15.628C105.174 16.12 105.246 16.6 105.39 17.068C105.534 17.524 105.744 17.932 106.02 18.292C106.308 18.652 106.662 18.94 107.082 19.156C107.502 19.372 107.982 19.48 108.522 19.48C109.086 19.48 109.578 19.372 109.998 19.156C110.418 18.928 110.766 18.628 111.042 18.256C111.318 17.884 111.522 17.47 111.654 17.014C111.798 16.546 111.87 16.072 111.87 15.592C111.87 15.1 111.798 14.626 111.654 14.17C111.51 13.714 111.294 13.306 111.006 12.946C110.718 12.574 110.364 12.286 109.944 12.082C109.524 11.878 109.05 11.776 108.522 11.776C107.958 11.776 107.466 11.884 107.046 12.1C106.638 12.316 106.29 12.61 106.002 12.982C105.726 13.342 105.516 13.756 105.372 14.224C105.24 14.68 105.174 15.148 105.174 15.628Z" fill="#2E2F42"/>
</svg>
